<svg width="106" height="27" viewBox="0 0 106 27" fill="none" xmlns="http://www.w3.org/2000/svg">
<path d="M5.704 10.744L6.024 12.2H6.12L6.376 10.696L8.056 5.8H10.312L7.336 13.544C7.10133 14.152 6.872 14.68 6.648 15.128C6.43467 15.576 6.2 15.9493 5.944 16.248C5.69867 16.536 5.42133 16.7547 5.112 16.904C4.80267 17.0427 4.44 17.112 4.024 17.112C3.672 17.112 3.384 17.0853 3.16 17.032C2.94667 16.9893 2.712 16.888 2.456 16.728L3.016 14.952C3.19733 15.048 3.36267 15.1067 3.512 15.128C3.66133 15.1493 3.82133 15.16 3.992 15.16C4.49333 15.16 4.84533 14.7653 5.048 13.976L0.856 5.8H3.432L5.704 10.744ZM11.1346 13.688V12.232H12.1106C12.484 12.232 12.788 12.1573 13.0226 12.008C13.268 11.8587 13.3906 11.6613 13.3906 11.416C13.3906 11.128 13.284 10.9253 13.0706 10.808C12.8573 10.68 12.532 10.616 12.0946 10.616C11.6786 10.616 11.3106 10.6693 10.9906 10.776C10.6706 10.8827 10.4146 10.9947 10.2226 11.112L9.77463 9.528C10.0946 9.34667 10.516 9.192 11.0386 9.064C11.572 8.92533 12.1373 8.856 12.7346 8.856C13.652 8.856 14.3346 9.02667 14.7826 9.368C15.2413 9.70933 15.4706 10.2053 15.4706 10.856C15.4706 11.0373 15.444 11.224 15.3906 11.416C15.348 11.5973 15.2733 11.7733 15.1666 11.944C15.06 12.1147 14.9266 12.2693 14.7666 12.408C14.6173 12.536 14.436 12.6373 14.2226 12.712V12.776C14.788 12.904 15.188 13.1333 15.4226 13.464C15.6573 13.784 15.7746 14.216 15.7746 14.76C15.7746 15.1013 15.7053 15.4213 15.5666 15.72C15.428 16.008 15.2146 16.2587 14.9266 16.472C14.6493 16.6853 14.2973 16.856 13.8706 16.984C13.444 17.112 12.9373 17.176 12.3506 17.176C11.764 17.176 11.252 17.1173 10.8146 17C10.388 16.872 10.0306 16.728 9.74263 16.568L10.1906 14.952C10.436 15.0907 10.7293 15.2027 11.0706 15.288C11.4226 15.3733 11.812 15.416 12.2386 15.416C13.2093 15.416 13.6946 15.1067 13.6946 14.488C13.6946 14.2107 13.5666 14.008 13.3106 13.88C13.0653 13.752 12.6013 13.688 11.9186 13.688H11.1346ZM21.8969 13.864H19.2889V17H17.2089V9H19.2889V12.008H21.8969V9H23.9769V17H21.8969V13.864ZM25.7546 9.464C26.1813 9.272 26.688 9.12267 27.2746 9.016C27.8613 8.89867 28.4746 8.84 29.1146 8.84C29.6693 8.84 30.1333 8.90933 30.5066 9.048C30.88 9.176 31.1733 9.36267 31.3866 9.608C31.6106 9.85333 31.7653 10.1467 31.8506 10.488C31.9466 10.8293 31.9946 11.2133 31.9946 11.64C31.9946 12.1093 31.9786 12.584 31.9466 13.064C31.9146 13.5333 31.8933 13.9973 31.8826 14.456C31.8826 14.9147 31.8986 15.3627 31.9306 15.8C31.9626 16.2267 32.0426 16.632 32.1706 17.016H30.4746L30.1386 15.912H30.0586C29.8453 16.2427 29.5466 16.5307 29.1626 16.776C28.7893 17.0107 28.304 17.128 27.7066 17.128C27.3333 17.128 26.9973 17.0747 26.6986 16.968C26.4 16.8507 26.144 16.6907 25.9306 16.488C25.7173 16.2747 25.552 16.0293 25.4346 15.752C25.3173 15.464 25.2586 15.144 25.2586 14.792C25.2586 14.3013 25.3653 13.8907 25.5786 13.56C25.8026 13.2187 26.1173 12.9467 26.5226 12.744C26.9386 12.5307 27.4293 12.3867 27.9946 12.312C28.5706 12.2267 29.2106 12.2 29.9146 12.232C29.9893 11.6347 29.9466 11.208 29.7866 10.952C29.6266 10.6853 29.2693 10.552 28.7146 10.552C28.2986 10.552 27.856 10.5947 27.3866 10.68C26.928 10.7653 26.5493 10.8773 26.2506 11.016L25.7546 9.464ZM28.3946 15.416C28.8106 15.416 29.1413 15.3253 29.3866 15.144C29.632 14.952 29.8133 14.7493 29.9306 14.536V13.496C29.6 13.464 29.28 13.4587 28.9706 13.48C28.672 13.5013 28.4053 13.5493 28.1706 13.624C27.936 13.6987 27.7493 13.8053 27.6106 13.944C27.472 14.0827 27.4026 14.2587 27.4026 14.472C27.4026 14.7707 27.488 15.0053 27.6586 15.176C27.84 15.336 28.0853 15.416 28.3946 15.416ZM39.5001 10.84H37.2761V17H35.1321V10.84H32.8441V9H39.5001V10.84ZM42.5076 15.256C42.8276 15.32 43.1316 15.352 43.4196 15.352C43.9316 15.352 44.2996 15.2667 44.5236 15.096C44.7583 14.9147 44.8756 14.6373 44.8756 14.264C44.8756 13.5707 44.4063 13.224 43.4676 13.224C43.1156 13.224 42.7956 13.2613 42.5076 13.336V15.256ZM42.5076 11.848C42.7636 11.8053 43.0196 11.7787 43.2756 11.768C43.5423 11.7467 43.7823 11.736 43.9956 11.736C44.5503 11.736 45.0196 11.8 45.4036 11.928C45.7876 12.0453 46.097 12.216 46.3316 12.44C46.577 12.664 46.753 12.9307 46.8596 13.24C46.9663 13.5387 47.0196 13.864 47.0196 14.216C47.0196 15.1867 46.7316 15.912 46.1556 16.392C45.5796 16.872 44.6036 17.112 43.2276 17.112C42.6196 17.112 42.0916 17.1013 41.6436 17.08C41.2063 17.0587 40.801 17.032 40.4276 17V9H42.5076V11.848ZM53.2095 10.504C53.5188 10.0347 53.8815 9.69867 54.2975 9.496C54.7242 9.28267 55.2362 9.176 55.8335 9.176C56.8042 9.176 57.5722 9.47467 58.1375 10.072C58.7135 10.6587 59.0015 11.576 59.0015 12.824C59.0015 14.264 58.6762 15.3573 58.0255 16.104C57.3748 16.8507 56.4575 17.224 55.2735 17.224C54.0362 17.224 53.0922 16.8133 52.4415 15.992C51.7908 15.1707 51.4655 13.8907 51.4655 12.152C51.4655 11.2347 51.5188 10.4507 51.6255 9.8C51.7322 9.14933 51.8815 8.6 52.0735 8.152C52.2762 7.704 52.5108 7.34667 52.7775 7.08C53.0548 6.81333 53.3588 6.60533 53.6895 6.456C54.0308 6.296 54.3935 6.184 54.7775 6.12C55.1615 6.056 55.5668 6.00267 55.9935 5.96C56.5482 5.90667 57.0228 5.84267 57.4175 5.768C57.8122 5.68267 58.1055 5.54933 58.2975 5.368L58.3775 7.224C58.1642 7.40533 57.8602 7.53333 57.4655 7.608C57.0708 7.672 56.5375 7.73067 55.8655 7.784C55.4602 7.80533 55.1028 7.85333 54.7935 7.928C54.4842 8.00267 54.2175 8.136 53.9935 8.328C53.7695 8.52 53.5882 8.792 53.4495 9.144C53.3215 9.48533 53.2255 9.93867 53.1615 10.504H53.2095ZM53.6095 13.096C53.6095 13.7787 53.7428 14.344 54.0095 14.792C54.2762 15.24 54.6868 15.464 55.2415 15.464C55.8175 15.464 56.2282 15.2613 56.4735 14.856C56.7295 14.4507 56.8575 13.864 56.8575 13.096C56.8575 12.4027 56.7402 11.8693 56.5055 11.496C56.2708 11.1227 55.8815 10.936 55.3375 10.936C54.7508 10.936 54.3135 11.128 54.0255 11.512C53.7482 11.896 53.6095 12.424 53.6095 13.096ZM60.0592 13C60.0592 11.6453 60.3899 10.6053 61.0513 9.88C61.7126 9.144 62.6406 8.776 63.8353 8.776C64.4753 8.776 65.0299 8.87733 65.4993 9.08C65.9686 9.28267 66.3579 9.57067 66.6673 9.944C66.9766 10.3067 67.2059 10.7493 67.3553 11.272C67.5153 11.7947 67.5953 12.3707 67.5953 13C67.5953 14.3547 67.2646 15.4 66.6033 16.136C65.9526 16.8613 65.0299 17.224 63.8353 17.224C63.1953 17.224 62.6406 17.1227 62.1713 16.92C61.7019 16.7173 61.3073 16.4347 60.9873 16.072C60.6779 15.6987 60.4433 15.2507 60.2833 14.728C60.1339 14.2053 60.0592 13.6293 60.0592 13ZM62.2033 13C62.2033 13.352 62.2353 13.6773 62.2993 13.976C62.3633 14.2747 62.4593 14.536 62.5873 14.76C62.7153 14.984 62.8806 15.16 63.0833 15.288C63.2966 15.4053 63.5473 15.464 63.8353 15.464C64.3793 15.464 64.7846 15.2667 65.0513 14.872C65.3179 14.4773 65.4513 13.8533 65.4513 13C65.4513 12.264 65.3286 11.672 65.0833 11.224C64.8379 10.7653 64.4219 10.536 63.8353 10.536C63.3233 10.536 62.9233 10.728 62.6353 11.112C62.3473 11.496 62.2033 12.1253 62.2033 13ZM73.389 10.84H71.805C71.741 11.5973 71.6663 12.3493 71.581 13.096C71.4957 13.8427 71.357 14.5147 71.165 15.112C70.9837 15.6987 70.733 16.1787 70.413 16.552C70.093 16.9147 69.677 17.096 69.165 17.096C68.5463 17.096 68.109 17.016 67.853 16.856L68.109 15.128C68.2797 15.192 68.4397 15.224 68.589 15.224C68.8023 15.224 68.989 15.1333 69.149 14.952C69.309 14.7707 69.4423 14.4453 69.549 13.976C69.6663 13.5067 69.757 12.872 69.821 12.072C69.8957 11.2613 69.949 10.2373 69.981 9H75.469V17H73.389V10.84ZM79.3514 15.256C79.6714 15.32 79.9754 15.352 80.2634 15.352C80.7754 15.352 81.1434 15.2667 81.3674 15.096C81.602 14.9147 81.7194 14.6373 81.7194 14.264C81.7194 13.5707 81.25 13.224 80.3114 13.224C79.9594 13.224 79.6394 13.2613 79.3514 13.336V15.256ZM79.3514 11.848C79.6074 11.8053 79.8634 11.7787 80.1194 11.768C80.386 11.7467 80.626 11.736 80.8394 11.736C81.394 11.736 81.8634 11.8 82.2474 11.928C82.6314 12.0453 82.9407 12.216 83.1754 12.44C83.4207 12.664 83.5967 12.9307 83.7034 13.24C83.81 13.5387 83.8634 13.864 83.8634 14.216C83.8634 15.1867 83.5754 15.912 82.9994 16.392C82.4234 16.872 81.4474 17.112 80.0714 17.112C79.4634 17.112 78.9354 17.1013 78.4874 17.08C78.05 17.0587 77.6447 17.032 77.2714 17V9H79.3514V11.848ZM85.1151 17V9H87.1951V15.16H89.1951V9H91.2751V15.16H93.2751V9H95.3551V17H85.1151ZM103.578 16.312C103.258 16.568 102.82 16.7867 102.266 16.968C101.722 17.1387 101.14 17.224 100.522 17.224C99.231 17.224 98.287 16.8507 97.6896 16.104C97.0923 15.3467 96.7936 14.312 96.7936 13C96.7936 11.592 97.1296 10.536 97.8016 9.832C98.4736 9.128 99.4176 8.776 100.634 8.776C101.039 8.776 101.434 8.82933 101.818 8.936C102.202 9.04267 102.543 9.21867 102.842 9.464C103.14 9.70933 103.38 10.04 103.562 10.456C103.743 10.872 103.834 11.3893 103.834 12.008C103.834 12.232 103.818 12.472 103.786 12.728C103.764 12.984 103.727 13.2507 103.674 13.528H98.8736C98.9056 14.2 99.0763 14.7067 99.3856 15.048C99.7056 15.3893 100.218 15.56 100.922 15.56C101.359 15.56 101.748 15.496 102.09 15.368C102.442 15.2293 102.708 15.0907 102.89 14.952L103.578 16.312ZM100.602 10.44C100.058 10.44 99.6523 10.6053 99.3856 10.936C99.1296 11.256 98.975 11.688 98.9216 12.232H101.898C101.94 11.656 101.85 11.2133 101.626 10.904C101.412 10.5947 101.071 10.44 100.602 10.44Z" fill="#363738"/>
<line x1="1" y1="25.5" x2="105" y2="25.5" stroke="#FFCE50" stroke-width="3"/>
</svg>
