<svg width="92" height="27" viewBox="0 0 92 27" fill="none" xmlns="http://www.w3.org/2000/svg">
<path d="M5.072 5.96V17H3.072V8.776C3.072 8.59467 3.07733 8.41333 3.088 8.232C3.09867 8.05067 3.12533 7.86933 3.168 7.688L0.512 8.424L0.256 7.08L3.072 5.96H5.072ZM11.6315 5.784C12.6342 5.784 13.4022 5.88533 13.9355 6.088C14.4795 6.29067 14.8475 6.61067 15.0395 7.048C15.2422 7.47467 15.3435 8.02933 15.3435 8.712C15.3435 9.384 15.2155 9.96 14.9595 10.44C14.7142 10.9093 14.3035 11.176 13.7275 11.24V11.304C14.4635 11.3787 14.9595 11.6827 15.2155 12.216C15.4715 12.7493 15.5995 13.4267 15.5995 14.248C15.5995 14.9413 15.4875 15.5067 15.2635 15.944C15.0502 16.3707 14.6555 16.6853 14.0795 16.888C13.5142 17.08 12.6982 17.176 11.6315 17.176C10.5755 17.176 9.7595 17.08 9.1835 16.888C8.6075 16.6853 8.2075 16.3707 7.9835 15.944C7.7595 15.5067 7.6475 14.9413 7.6475 14.248C7.6475 13.4267 7.7755 12.7493 8.0315 12.216C8.29817 11.6827 8.79417 11.3787 9.5195 11.304V11.24C8.9435 11.176 8.5275 10.9093 8.2715 10.44C8.02617 9.96 7.9035 9.384 7.9035 8.712C7.9035 8.02933 8.00483 7.47467 8.2075 7.048C8.41017 6.61067 8.77817 6.29067 9.3115 6.088C9.8555 5.88533 10.6288 5.784 11.6315 5.784ZM11.6475 7.24C11.1248 7.24 10.7248 7.29333 10.4475 7.4C10.1702 7.496 9.97817 7.66667 9.8715 7.912C9.76483 8.15733 9.7115 8.49867 9.7115 8.936C9.7115 9.384 9.76483 9.72533 9.8715 9.96C9.97817 10.1947 10.1702 10.3547 10.4475 10.44C10.7355 10.5253 11.1408 10.568 11.6635 10.568C12.1862 10.568 12.5808 10.5253 12.8475 10.44C13.1248 10.344 13.3062 10.1787 13.3915 9.944C13.4875 9.70933 13.5355 9.37333 13.5355 8.936C13.5355 8.49867 13.4822 8.15733 13.3755 7.912C13.2795 7.66667 13.0928 7.496 12.8155 7.4C12.5488 7.29333 12.1595 7.24 11.6475 7.24ZM11.6635 11.976C11.0768 11.976 10.6288 12.0293 10.3195 12.136C10.0208 12.232 9.81283 12.4187 9.6955 12.696C9.57817 12.9627 9.5195 13.352 9.5195 13.864C9.5195 14.312 9.57817 14.664 9.6955 14.92C9.81283 15.176 10.0208 15.3573 10.3195 15.464C10.6288 15.56 11.0715 15.608 11.6475 15.608C12.2022 15.608 12.6288 15.56 12.9275 15.464C13.2262 15.3573 13.4288 15.176 13.5355 14.92C13.6422 14.664 13.6955 14.312 13.6955 13.864C13.6955 13.3413 13.6422 12.9467 13.5355 12.68C13.4288 12.4133 13.2262 12.232 12.9275 12.136C12.6395 12.0293 12.2182 11.976 11.6635 11.976ZM25.0221 5.752C26.0355 5.752 26.8355 5.944 27.4221 6.328C28.0195 6.70133 28.4461 7.30933 28.7021 8.152C28.9688 8.99467 29.1021 10.104 29.1021 11.48C29.1021 12.856 28.9688 13.9653 28.7021 14.808C28.4461 15.6507 28.0195 16.264 27.4221 16.648C26.8355 17.0213 26.0355 17.208 25.0221 17.208C24.0088 17.208 23.2035 17.0213 22.6061 16.648C22.0195 16.264 21.5981 15.6507 21.3421 14.808C21.0861 13.9653 20.9581 12.856 20.9581 11.48C20.9581 10.104 21.0861 8.99467 21.3421 8.152C21.5981 7.30933 22.0195 6.70133 22.6061 6.328C23.2035 5.944 24.0088 5.752 25.0221 5.752ZM25.0221 7.368C24.4888 7.368 24.0675 7.496 23.7581 7.752C23.4595 7.99733 23.2461 8.41867 23.1181 9.016C23.0008 9.61333 22.9421 10.4347 22.9421 11.48C22.9421 12.5253 23.0008 13.3467 23.1181 13.944C23.2461 14.5413 23.4595 14.968 23.7581 15.224C24.0675 15.4693 24.4888 15.592 25.0221 15.592C25.5555 15.592 25.9715 15.4693 26.2701 15.224C26.5795 14.968 26.7981 14.5413 26.9261 13.944C27.0541 13.3467 27.1181 12.5253 27.1181 11.48C27.1181 10.4347 27.0541 9.61333 26.9261 9.016C26.7981 8.41867 26.5795 7.99733 26.2701 7.752C25.9715 7.496 25.5555 7.368 25.0221 7.368ZM34.9284 5.752C35.9417 5.752 36.7417 5.944 37.3284 6.328C37.9257 6.70133 38.3524 7.30933 38.6084 8.152C38.875 8.99467 39.0084 10.104 39.0084 11.48C39.0084 12.856 38.875 13.9653 38.6084 14.808C38.3524 15.6507 37.9257 16.264 37.3284 16.648C36.7417 17.0213 35.9417 17.208 34.9284 17.208C33.915 17.208 33.1097 17.0213 32.5124 16.648C31.9257 16.264 31.5044 15.6507 31.2484 14.808C30.9924 13.9653 30.8644 12.856 30.8644 11.48C30.8644 10.104 30.9924 8.99467 31.2484 8.152C31.5044 7.30933 31.9257 6.70133 32.5124 6.328C33.1097 5.944 33.915 5.752 34.9284 5.752ZM34.9284 7.368C34.395 7.368 33.9737 7.496 33.6644 7.752C33.3657 7.99733 33.1524 8.41867 33.0244 9.016C32.907 9.61333 32.8484 10.4347 32.8484 11.48C32.8484 12.5253 32.907 13.3467 33.0244 13.944C33.1524 14.5413 33.3657 14.968 33.6644 15.224C33.9737 15.4693 34.395 15.592 34.9284 15.592C35.4617 15.592 35.8777 15.4693 36.1764 15.224C36.4857 14.968 36.7044 14.5413 36.8324 13.944C36.9604 13.3467 37.0244 12.5253 37.0244 11.48C37.0244 10.4347 36.9604 9.61333 36.8324 9.016C36.7044 8.41867 36.4857 7.99733 36.1764 7.752C35.8777 7.496 35.4617 7.368 34.9284 7.368ZM44.8346 5.752C45.848 5.752 46.648 5.944 47.2346 6.328C47.832 6.70133 48.2586 7.30933 48.5146 8.152C48.7813 8.99467 48.9146 10.104 48.9146 11.48C48.9146 12.856 48.7813 13.9653 48.5146 14.808C48.2586 15.6507 47.832 16.264 47.2346 16.648C46.648 17.0213 45.848 17.208 44.8346 17.208C43.8213 17.208 43.016 17.0213 42.4186 16.648C41.832 16.264 41.4106 15.6507 41.1546 14.808C40.8986 13.9653 40.7706 12.856 40.7706 11.48C40.7706 10.104 40.8986 8.99467 41.1546 8.152C41.4106 7.30933 41.832 6.70133 42.4186 6.328C43.016 5.944 43.8213 5.752 44.8346 5.752ZM44.8346 7.368C44.3013 7.368 43.88 7.496 43.5706 7.752C43.272 7.99733 43.0586 8.41867 42.9306 9.016C42.8133 9.61333 42.7546 10.4347 42.7546 11.48C42.7546 12.5253 42.8133 13.3467 42.9306 13.944C43.0586 14.5413 43.272 14.968 43.5706 15.224C43.88 15.4693 44.3013 15.592 44.8346 15.592C45.368 15.592 45.784 15.4693 46.0826 15.224C46.392 14.968 46.6106 14.5413 46.7386 13.944C46.8666 13.3467 46.9306 12.5253 46.9306 11.48C46.9306 10.4347 46.8666 9.61333 46.7386 9.016C46.6106 8.41867 46.392 7.99733 46.0826 7.752C45.784 7.496 45.368 7.368 44.8346 7.368ZM56.0005 9.144L56.1605 10.344C56.5338 9.928 57.0032 9.592 57.5685 9.336C58.1338 9.08 58.7098 8.952 59.2965 8.952C60.2885 8.952 60.9925 9.30933 61.4085 10.024C61.8352 10.7387 62.0485 11.7733 62.0485 13.128C62.0485 14.1627 61.9365 14.9787 61.7125 15.576C61.4992 16.1627 61.1738 16.584 60.7365 16.84C60.2992 17.0853 59.7498 17.208 59.0885 17.208C58.5872 17.208 58.0965 17.144 57.6165 17.016C57.1472 16.888 56.7098 16.68 56.3045 16.392C56.3578 16.9467 56.3792 17.5013 56.3685 18.056V20.12H54.4325V9.144H56.0005ZM58.5765 10.488C58.1925 10.488 57.8298 10.568 57.4885 10.728C57.1578 10.888 56.7845 11.1227 56.3685 11.432V15.32C56.7418 15.4267 57.0832 15.5227 57.3925 15.608C57.7125 15.6827 58.0645 15.72 58.4485 15.72C58.8325 15.72 59.1418 15.656 59.3765 15.528C59.6112 15.3893 59.7818 15.1333 59.8885 14.76C59.9952 14.3867 60.0485 13.848 60.0485 13.144C60.0485 12.4507 59.9952 11.912 59.8885 11.528C59.7925 11.144 59.6378 10.8773 59.4245 10.728C59.2112 10.568 58.9285 10.488 58.5765 10.488ZM64.9911 9.144L66.7191 14.552C66.8258 14.9147 66.9165 15.2827 66.9911 15.656H67.1831C67.2471 15.4747 67.3058 15.288 67.3591 15.096C67.4125 14.8933 67.4658 14.712 67.5191 14.552L69.2471 9.144H71.3111L68.3671 17.24C68.1751 17.816 67.9191 18.3227 67.5991 18.76C67.2791 19.208 66.8791 19.5653 66.3991 19.832C65.9831 20.088 65.5138 20.232 64.9911 20.264C64.4791 20.3067 63.9458 20.2853 63.3911 20.2L63.5511 18.904C63.9565 18.9253 64.3298 18.9147 64.6711 18.872C65.0125 18.8293 65.3111 18.7227 65.5671 18.552C65.7805 18.4133 65.9725 18.216 66.1431 17.96C66.3245 17.704 66.4738 17.4267 66.5911 17.128L66.6551 17H66.2551C65.9245 17 65.7058 16.84 65.5991 16.52L62.9111 9.144H64.9911ZM79.3713 5.192L79.7233 6.68C79.2646 6.94667 78.8379 7.12267 78.4433 7.208C78.0486 7.29333 77.6593 7.35733 77.2753 7.4C76.9019 7.432 76.5073 7.50133 76.0913 7.608C75.4193 7.8 74.9499 8.088 74.6833 8.472C74.4166 8.84533 74.2406 9.25067 74.1553 9.688C74.0806 9.912 74.0273 10.1253 73.9953 10.328C73.9739 10.52 73.9526 10.6907 73.9313 10.84H73.9793C74.1286 10.5947 74.3099 10.3653 74.5233 10.152C74.7473 9.928 75.0459 9.74667 75.4193 9.608C75.7926 9.46933 76.2779 9.4 76.8753 9.4C77.6859 9.4 78.3259 9.528 78.7953 9.784C79.2753 10.04 79.6166 10.4453 79.8193 11C80.0326 11.5547 80.1393 12.2747 80.1393 13.16C80.1393 14.0133 80.0273 14.744 79.8033 15.352C79.5899 15.9493 79.2059 16.408 78.6513 16.728C78.1073 17.0373 77.3446 17.192 76.3633 17.192C75.4459 17.192 74.7259 17.0693 74.2033 16.824C73.6806 16.568 73.2966 16.216 73.0513 15.768C72.8166 15.3093 72.6673 14.776 72.6033 14.168C72.5393 13.56 72.5073 12.8987 72.5073 12.184C72.5073 11.096 72.5713 10.1573 72.6993 9.368C72.8379 8.568 73.1153 7.90667 73.5312 7.384C73.9579 6.85067 74.5979 6.45067 75.4513 6.184C75.9099 6.03467 76.3473 5.93867 76.7633 5.896C77.1899 5.84267 77.6113 5.77867 78.0273 5.704C78.4539 5.61867 78.9019 5.448 79.3713 5.192ZM76.3953 10.776C75.8619 10.776 75.4566 10.8613 75.1793 11.032C74.9126 11.2027 74.7313 11.464 74.6353 11.816C74.5393 12.1573 74.4913 12.6053 74.4913 13.16C74.4913 13.8213 74.5499 14.3387 74.6673 14.712C74.7846 15.0853 74.9766 15.3467 75.2433 15.496C75.5099 15.6453 75.8673 15.72 76.3153 15.72C76.7633 15.72 77.1153 15.6453 77.3713 15.496C77.6379 15.3467 77.8246 15.0853 77.9313 14.712C78.0486 14.3387 78.1073 13.8213 78.1073 13.16C78.1073 12.5307 78.0539 12.0453 77.9473 11.704C77.8513 11.352 77.6753 11.112 77.4193 10.984C77.1739 10.8453 76.8326 10.776 76.3953 10.776ZM83.0663 14.808C83.3329 14.808 83.5143 14.856 83.6103 14.952C83.7169 15.048 83.7703 15.2293 83.7703 15.496V16.296C83.7703 16.5627 83.7169 16.7493 83.6103 16.856C83.5143 16.952 83.3329 17 83.0663 17H82.5383C82.2823 17 82.1009 16.952 81.9943 16.856C81.8876 16.7493 81.8343 16.5627 81.8343 16.296V15.496C81.8343 15.2293 81.8876 15.048 81.9943 14.952C82.1009 14.856 82.2823 14.808 82.5383 14.808H83.0663Z" fill="#363738"/>
<line y1="25.5" x2="86" y2="25.5" stroke="#FFCE50" stroke-width="3"/>
</svg>
