<svg width="92" height="27" viewBox="0 0 92 27" fill="none" xmlns="http://www.w3.org/2000/svg">
<path d="M4.464 5.768C5.2 5.768 5.83467 5.832 6.368 5.96C6.90133 6.088 7.312 6.33333 7.6 6.696C7.89867 7.048 8.048 7.57067 8.048 8.264C8.048 8.70133 7.98933 9.112 7.872 9.496C7.76533 9.86933 7.57333 10.2587 7.296 10.664C7.02933 11.0693 6.65067 11.5333 6.16 12.056L3.152 15.288C3.42933 15.2453 3.712 15.2187 4 15.208C4.288 15.1973 4.57067 15.192 4.848 15.192H8.4V17H0.784V15.88C0.784 15.7093 0.8 15.56 0.832 15.432C0.874667 15.2933 0.954667 15.1653 1.072 15.048L4 11.816C4.68267 11.1013 5.18933 10.472 5.52 9.928C5.86133 9.37333 6.02667 8.87733 6.016 8.44C5.99467 8.01333 5.83467 7.74667 5.536 7.64C5.23733 7.53333 4.81067 7.48 4.256 7.48C3.89333 7.48 3.552 7.48533 3.232 7.496C2.92267 7.50667 2.58667 7.528 2.224 7.56C1.872 7.58133 1.456 7.61867 0.976 7.672L0.88 6.168C1.648 5.99733 2.29867 5.89067 2.832 5.848C3.376 5.79467 3.92 5.768 4.464 5.768ZM14.1159 5.752C15.1292 5.752 15.9292 5.944 16.5159 6.328C17.1132 6.70133 17.5399 7.30933 17.7959 8.152C18.0625 8.99467 18.1959 10.104 18.1959 11.48C18.1959 12.856 18.0625 13.9653 17.7959 14.808C17.5399 15.6507 17.1132 16.264 16.5159 16.648C15.9292 17.0213 15.1292 17.208 14.1159 17.208C13.1025 17.208 12.2972 17.0213 11.6999 16.648C11.1132 16.264 10.6919 15.6507 10.4359 14.808C10.1799 13.9653 10.0519 12.856 10.0519 11.48C10.0519 10.104 10.1799 8.99467 10.4359 8.152C10.6919 7.30933 11.1132 6.70133 11.6999 6.328C12.2972 5.944 13.1025 5.752 14.1159 5.752ZM14.1159 7.368C13.5825 7.368 13.1612 7.496 12.8519 7.752C12.5532 7.99733 12.3399 8.41867 12.2119 9.016C12.0945 9.61333 12.0359 10.4347 12.0359 11.48C12.0359 12.5253 12.0945 13.3467 12.2119 13.944C12.3399 14.5413 12.5532 14.968 12.8519 15.224C13.1612 15.4693 13.5825 15.592 14.1159 15.592C14.6492 15.592 15.0652 15.4693 15.3639 15.224C15.6732 14.968 15.8919 14.5413 16.0199 13.944C16.1479 13.3467 16.2119 12.5253 16.2119 11.48C16.2119 10.4347 16.1479 9.61333 16.0199 9.016C15.8919 8.41867 15.6732 7.99733 15.3639 7.752C15.0652 7.496 14.6492 7.368 14.1159 7.368ZM27.5378 5.752C28.5511 5.752 29.3511 5.944 29.9378 6.328C30.5351 6.70133 30.9618 7.30933 31.2178 8.152C31.4844 8.99467 31.6178 10.104 31.6178 11.48C31.6178 12.856 31.4844 13.9653 31.2178 14.808C30.9618 15.6507 30.5351 16.264 29.9378 16.648C29.3511 17.0213 28.5511 17.208 27.5378 17.208C26.5244 17.208 25.7191 17.0213 25.1218 16.648C24.5351 16.264 24.1138 15.6507 23.8578 14.808C23.6018 13.9653 23.4738 12.856 23.4738 11.48C23.4738 10.104 23.6018 8.99467 23.8578 8.152C24.1138 7.30933 24.5351 6.70133 25.1218 6.328C25.7191 5.944 26.5244 5.752 27.5378 5.752ZM27.5378 7.368C27.0044 7.368 26.5831 7.496 26.2738 7.752C25.9751 7.99733 25.7618 8.41867 25.6338 9.016C25.5164 9.61333 25.4578 10.4347 25.4578 11.48C25.4578 12.5253 25.5164 13.3467 25.6338 13.944C25.7618 14.5413 25.9751 14.968 26.2738 15.224C26.5831 15.4693 27.0044 15.592 27.5378 15.592C28.0711 15.592 28.4871 15.4693 28.7858 15.224C29.0951 14.968 29.3138 14.5413 29.4418 13.944C29.5698 13.3467 29.6338 12.5253 29.6338 11.48C29.6338 10.4347 29.5698 9.61333 29.4418 9.016C29.3138 8.41867 29.0951 7.99733 28.7858 7.752C28.4871 7.496 28.0711 7.368 27.5378 7.368ZM37.444 5.752C38.4573 5.752 39.2573 5.944 39.844 6.328C40.4413 6.70133 40.868 7.30933 41.124 8.152C41.3907 8.99467 41.524 10.104 41.524 11.48C41.524 12.856 41.3907 13.9653 41.124 14.808C40.868 15.6507 40.4413 16.264 39.844 16.648C39.2573 17.0213 38.4573 17.208 37.444 17.208C36.4307 17.208 35.6253 17.0213 35.028 16.648C34.4413 16.264 34.02 15.6507 33.764 14.808C33.508 13.9653 33.38 12.856 33.38 11.48C33.38 10.104 33.508 8.99467 33.764 8.152C34.02 7.30933 34.4413 6.70133 35.028 6.328C35.6253 5.944 36.4307 5.752 37.444 5.752ZM37.444 7.368C36.9107 7.368 36.4893 7.496 36.18 7.752C35.8813 7.99733 35.668 8.41867 35.54 9.016C35.4227 9.61333 35.364 10.4347 35.364 11.48C35.364 12.5253 35.4227 13.3467 35.54 13.944C35.668 14.5413 35.8813 14.968 36.18 15.224C36.4893 15.4693 36.9107 15.592 37.444 15.592C37.9773 15.592 38.3933 15.4693 38.692 15.224C39.0013 14.968 39.22 14.5413 39.348 13.944C39.476 13.3467 39.54 12.5253 39.54 11.48C39.54 10.4347 39.476 9.61333 39.348 9.016C39.22 8.41867 39.0013 7.99733 38.692 7.752C38.3933 7.496 37.9773 7.368 37.444 7.368ZM47.3503 5.752C48.3636 5.752 49.1636 5.944 49.7503 6.328C50.3476 6.70133 50.7743 7.30933 51.0303 8.152C51.2969 8.99467 51.4303 10.104 51.4303 11.48C51.4303 12.856 51.2969 13.9653 51.0303 14.808C50.7743 15.6507 50.3476 16.264 49.7503 16.648C49.1636 17.0213 48.3636 17.208 47.3503 17.208C46.3369 17.208 45.5316 17.0213 44.9343 16.648C44.3476 16.264 43.9263 15.6507 43.6703 14.808C43.4143 13.9653 43.2863 12.856 43.2863 11.48C43.2863 10.104 43.4143 8.99467 43.6703 8.152C43.9263 7.30933 44.3476 6.70133 44.9343 6.328C45.5316 5.944 46.3369 5.752 47.3503 5.752ZM47.3503 7.368C46.8169 7.368 46.3956 7.496 46.0863 7.752C45.7876 7.99733 45.5743 8.41867 45.4463 9.016C45.3289 9.61333 45.2703 10.4347 45.2703 11.48C45.2703 12.5253 45.3289 13.3467 45.4463 13.944C45.5743 14.5413 45.7876 14.968 46.0863 15.224C46.3956 15.4693 46.8169 15.592 47.3503 15.592C47.8836 15.592 48.2996 15.4693 48.5983 15.224C48.9076 14.968 49.1263 14.5413 49.2543 13.944C49.3823 13.3467 49.4463 12.5253 49.4463 11.48C49.4463 10.4347 49.3823 9.61333 49.2543 9.016C49.1263 8.41867 48.9076 7.99733 48.5983 7.752C48.2996 7.496 47.8836 7.368 47.3503 7.368ZM58.5161 9.144L58.6761 10.344C59.0495 9.928 59.5188 9.592 60.0841 9.336C60.6495 9.08 61.2255 8.952 61.8121 8.952C62.8041 8.952 63.5081 9.30933 63.9241 10.024C64.3508 10.7387 64.5641 11.7733 64.5641 13.128C64.5641 14.1627 64.4521 14.9787 64.2281 15.576C64.0148 16.1627 63.6895 16.584 63.2521 16.84C62.8148 17.0853 62.2655 17.208 61.6041 17.208C61.1028 17.208 60.6121 17.144 60.1321 17.016C59.6628 16.888 59.2255 16.68 58.8201 16.392C58.8735 16.9467 58.8948 17.5013 58.8841 18.056V20.12H56.9481V9.144H58.5161ZM61.0921 10.488C60.7081 10.488 60.3455 10.568 60.0041 10.728C59.6735 10.888 59.3001 11.1227 58.8841 11.432V15.32C59.2575 15.4267 59.5988 15.5227 59.9081 15.608C60.2281 15.6827 60.5801 15.72 60.9641 15.72C61.3481 15.72 61.6575 15.656 61.8921 15.528C62.1268 15.3893 62.2975 15.1333 62.4041 14.76C62.5108 14.3867 62.5641 13.848 62.5641 13.144C62.5641 12.4507 62.5108 11.912 62.4041 11.528C62.3081 11.144 62.1535 10.8773 61.9401 10.728C61.7268 10.568 61.4441 10.488 61.0921 10.488ZM67.5068 9.144L69.2348 14.552C69.3414 14.9147 69.4321 15.2827 69.5068 15.656H69.6988C69.7628 15.4747 69.8214 15.288 69.8748 15.096C69.9281 14.8933 69.9814 14.712 70.0348 14.552L71.7628 9.144H73.8268L70.8828 17.24C70.6908 17.816 70.4348 18.3227 70.1148 18.76C69.7948 19.208 69.3948 19.5653 68.9148 19.832C68.4988 20.088 68.0294 20.232 67.5068 20.264C66.9948 20.3067 66.4614 20.2853 65.9068 20.2L66.0668 18.904C66.4721 18.9253 66.8454 18.9147 67.1868 18.872C67.5281 18.8293 67.8268 18.7227 68.0828 18.552C68.2961 18.4133 68.4881 18.216 68.6588 17.96C68.8401 17.704 68.9894 17.4267 69.1068 17.128L69.1708 17H68.7708C68.4401 17 68.2214 16.84 68.1148 16.52L65.4268 9.144H67.5068ZM81.8869 5.192L82.2389 6.68C81.7802 6.94667 81.3535 7.12267 80.9589 7.208C80.5642 7.29333 80.1749 7.35733 79.7909 7.4C79.4175 7.432 79.0229 7.50133 78.6069 7.608C77.9349 7.8 77.4655 8.088 77.1989 8.472C76.9322 8.84533 76.7562 9.25067 76.6709 9.688C76.5962 9.912 76.5429 10.1253 76.5109 10.328C76.4895 10.52 76.4682 10.6907 76.4469 10.84H76.4949C76.6442 10.5947 76.8255 10.3653 77.0389 10.152C77.2629 9.928 77.5615 9.74667 77.9349 9.608C78.3082 9.46933 78.7935 9.4 79.3909 9.4C80.2015 9.4 80.8415 9.528 81.3109 9.784C81.7909 10.04 82.1322 10.4453 82.3349 11C82.5482 11.5547 82.6549 12.2747 82.6549 13.16C82.6549 14.0133 82.5429 14.744 82.3189 15.352C82.1055 15.9493 81.7215 16.408 81.1669 16.728C80.6229 17.0373 79.8602 17.192 78.8789 17.192C77.9615 17.192 77.2415 17.0693 76.7189 16.824C76.1962 16.568 75.8122 16.216 75.5669 15.768C75.3322 15.3093 75.1829 14.776 75.1189 14.168C75.0549 13.56 75.0229 12.8987 75.0229 12.184C75.0229 11.096 75.0869 10.1573 75.2149 9.368C75.3535 8.568 75.6309 7.90667 76.0469 7.384C76.4735 6.85067 77.1135 6.45067 77.9669 6.184C78.4255 6.03467 78.8629 5.93867 79.2789 5.896C79.7055 5.84267 80.1269 5.77867 80.5429 5.704C80.9695 5.61867 81.4175 5.448 81.8869 5.192ZM78.9109 10.776C78.3775 10.776 77.9722 10.8613 77.6949 11.032C77.4282 11.2027 77.2469 11.464 77.1509 11.816C77.0549 12.1573 77.0069 12.6053 77.0069 13.16C77.0069 13.8213 77.0655 14.3387 77.1829 14.712C77.3002 15.0853 77.4922 15.3467 77.7589 15.496C78.0255 15.6453 78.3829 15.72 78.8309 15.72C79.2789 15.72 79.6309 15.6453 79.8869 15.496C80.1535 15.3467 80.3402 15.0853 80.4469 14.712C80.5642 14.3387 80.6229 13.8213 80.6229 13.16C80.6229 12.5307 80.5695 12.0453 80.4629 11.704C80.3669 11.352 80.1909 11.112 79.9349 10.984C79.6895 10.8453 79.3482 10.776 78.9109 10.776ZM85.5819 14.808C85.8485 14.808 86.0299 14.856 86.1259 14.952C86.2325 15.048 86.2859 15.2293 86.2859 15.496V16.296C86.2859 16.5627 86.2325 16.7493 86.1259 16.856C86.0299 16.952 85.8485 17 85.5819 17H85.0539C84.7979 17 84.6165 16.952 84.5099 16.856C84.4032 16.7493 84.3499 16.5627 84.3499 16.296V15.496C84.3499 15.2293 84.4032 15.048 84.5099 14.952C84.6165 14.856 84.7979 14.808 85.0539 14.808H85.5819Z" fill="#363738"/>
<line y1="25.5" x2="86" y2="25.5" stroke="#FFCE50" stroke-width="3"/>
</svg>
